<svg width="828" height="1024" viewBox="0 0 828 1024" fill="none" xmlns="http://www.w3.org/2000/svg">
<g clip-path="url(#clip0_3_442)">
<rect width="830" height="1024" transform="translate(-2)" fill="#008D86"/>
<g filter="url(#filter0_d_3_442)">
<path d="M488.881 154.406C474.251 114.091 417.005 113.388 400.966 153.164C398.432 159.45 398.263 166.537 400.543 172.92C415.584 215.036 475.532 214.234 489.217 171.658C491.021 166.046 490.892 159.947 488.881 154.406Z" fill="#078193"/>
</g>
<g filter="url(#filter1_d_3_442)">
<path d="M359.75 67.8784L359.608 68.8456C356.372 90.8305 381.077 105.962 399.191 93.0906C412.735 83.4667 411.198 62.8961 396.375 55.3913L390.042 52.1848C377.235 45.7007 361.84 53.6763 359.75 67.8784Z" fill="#009CA0"/>
</g>
<g filter="url(#filter2_d_3_442)">
<path d="M140.05 523.748L157.89 524.29C190.735 525.288 203.84 482.256 176.013 464.778C144.588 445.039 108.024 481.218 127.428 512.851L130.835 518.404C132.81 521.624 136.274 523.633 140.05 523.748Z" fill="#0AAA75"/>
</g>
<g filter="url(#filter3_d_3_442)">
<path d="M23.3876 226.668L69.4721 222.605C170.449 213.702 190.184 74.7347 96.7171 35.4983C72.1377 25.1802 43.8333 38.565 36.5221 64.2L2.96244 181.869C2.62643 183.047 4.28602 183.692 4.83435 182.597C5.25467 181.757 6.51918 182.044 6.53542 182.983L7.03655 211.954C7.18737 220.673 14.701 227.434 23.3876 226.668Z" fill="#01A9A3"/>
</g>
<g filter="url(#filter4_d_3_442)">
<path d="M332.104 48.5487L333.182 37.1708C334.24 26.0205 327.287 15.6716 316.565 12.4347L289.69 4.32162C284.61 2.78796 279.284 2.23747 273.997 2.69968L156.153 13.003C126.941 15.557 107.726 44.6559 116.849 72.5236C154.161 186.496 320.784 167.938 332.104 48.5487Z" fill="#0096A3"/>
</g>
<g filter="url(#filter5_d_3_442)">
<path d="M417.438 526.683L442.112 529.727C463.66 532.385 481.789 513.732 478.517 492.269C471.832 448.415 416.651 432.788 387.965 466.625L360.875 498.58L85 771.9L400.338 531.314C405.214 527.595 411.352 525.932 417.438 526.683Z" fill="#0E9888"/>
</g>
<g filter="url(#filter6_d_3_442)">
<path d="M425.032 157.243L454.807 151.98C469.458 149.391 474.988 131.276 464.281 120.946L459.973 116.79C436.2 93.8518 398.405 121.182 412.74 150.945C414.964 155.561 419.986 158.134 425.032 157.243Z" fill="#0E9888"/>
</g>
<g filter="url(#filter7_d_3_442)">
<path d="M110.296 80.5971L113.584 77.3704C122.228 68.8901 121.974 54.8899 113.029 46.7288L105.948 40.2688C89.2734 25.057 62.4216 36.1742 61.3802 58.7207C60.1733 84.8499 91.624 98.9156 110.296 80.5971Z" fill="#16A993"/>
</g>
<g filter="url(#filter8_d_3_442)">
<path d="M376.964 410.514L404.937 408.402C409.146 408.084 413.216 406.761 416.808 404.545C445.727 386.697 436.083 342.402 402.361 338.193L399.611 337.85C397.963 337.644 396.351 337.214 394.819 336.571L375.46 328.442C357.87 321.055 337.641 329.52 330.554 347.233C317.843 379.001 342.844 413.09 376.964 410.514Z" fill="#148F82"/>
</g>
<g filter="url(#filter9_d_3_442)">
<path d="M89.4682 119.332L125.511 115.132C126.633 115.002 127.745 114.789 128.836 114.498C165.655 104.655 170.939 54.5351 136.932 37.3284C135.184 36.4442 133.349 35.7446 131.457 35.241L115.298 30.9418C72.3465 19.5144 37.0046 65.6975 59.2599 104.169C65.406 114.794 77.2764 120.752 89.4682 119.332Z" fill="#07B49A"/>
</g>
<g filter="url(#filter10_d_3_442)">
<path d="M408.383 431.379L400.809 418.628C398.192 414.22 398.526 408.662 401.653 404.6C408.904 395.18 405.957 381.503 395.469 375.905L297.902 323.832C274.983 311.6 246.5 319.478 233.124 341.748C178.681 432.396 281.709 535.535 372.415 481.19L399.966 464.683C411.464 457.794 415.227 442.904 408.383 431.379Z" fill="#179275"/>
</g>
<g filter="url(#filter11_d_3_442)">
<path d="M57.0881 98.7724L56.3783 99.5245C45.9488 110.577 45.6025 127.737 55.5776 139.201C73.9494 160.315 108.715 148.323 110.889 120.419C110.963 119.481 110.96 118.528 110.881 117.591C108.609 90.7102 75.6025 79.1526 57.0881 98.7724Z" fill="#228398"/>
</g>
<g filter="url(#filter12_d_3_442)">
<path d="M545.215 902.465L754.946 876.083C867.333 861.945 933.035 742.067 884.487 639.725C828.801 522.334 670.995 500.584 585.629 598.535L453.752 749.852C450.928 753.092 447.719 755.976 444.197 758.44C392.707 794.449 405.475 873.983 465.649 892.067L472.652 894.171C474.548 894.741 476.484 895.169 478.443 895.452L525.809 902.288C532.241 903.217 538.768 903.276 545.215 902.465Z" fill="#00B17A"/>
</g>
<g filter="url(#filter13_d_3_442)">
<path d="M62.1005 876.266L171.007 845.965C189.036 840.949 201.192 824.121 200.288 805.429C195.675 709.97 64.3495 687.894 28.7788 776.598L11.9443 818.579L10.438 824.051C4.1475 846.902 17.7708 870.483 40.7098 876.447C47.7314 878.273 55.1109 878.21 62.1005 876.266Z" fill="#009F8D"/>
</g>
</g>
<defs>
<filter id="filter0_d_3_442" x="366.942" y="91.7461" width="155.543" height="144.307" filterUnits="userSpaceOnUse" color-interpolation-filters="sRGB">
<feFlood flood-opacity="0" result="BackgroundImageFix"/>
<feColorMatrix in="SourceAlpha" type="matrix" values="0 0 0 0 0 0 0 0 0 0 0 0 0 0 0 0 0 0 127 0" result="hardAlpha"/>
<feOffset/>
<feGaussianBlur stdDeviation="16"/>
<feColorMatrix type="matrix" values="0 0 0 0 0.0366013 0 0 0 0 0.397386 0 0 0 0 0.355556 0 0 0 0.0769231 0"/>
<feBlend mode="multiply" in2="BackgroundImageFix" result="effect1_dropShadow_3_442"/>
<feBlend mode="normal" in="SourceGraphic" in2="effect1_dropShadow_3_442" result="shape"/>
</filter>
<filter id="filter1_d_3_442" x="327.32" y="17.9011" width="113.164" height="111.924" filterUnits="userSpaceOnUse" color-interpolation-filters="sRGB">
<feFlood flood-opacity="0" result="BackgroundImageFix"/>
<feColorMatrix in="SourceAlpha" type="matrix" values="0 0 0 0 0 0 0 0 0 0 0 0 0 0 0 0 0 0 127 0" result="hardAlpha"/>
<feOffset/>
<feGaussianBlur stdDeviation="16"/>
<feColorMatrix type="matrix" values="0 0 0 0 0.0366013 0 0 0 0 0.397386 0 0 0 0 0.355556 0 0 0 0.0769231 0"/>
<feBlend mode="multiply" in2="BackgroundImageFix" result="effect1_dropShadow_3_442"/>
<feBlend mode="normal" in="SourceGraphic" in2="effect1_dropShadow_3_442" result="shape"/>
</filter>
<filter id="filter2_d_3_442" x="90.0078" y="427.16" width="133.16" height="129.147" filterUnits="userSpaceOnUse" color-interpolation-filters="sRGB">
<feFlood flood-opacity="0" result="BackgroundImageFix"/>
<feColorMatrix in="SourceAlpha" type="matrix" values="0 0 0 0 0 0 0 0 0 0 0 0 0 0 0 0 0 0 127 0" result="hardAlpha"/>
<feOffset/>
<feGaussianBlur stdDeviation="16"/>
<feColorMatrix type="matrix" values="0 0 0 0 0.0366013 0 0 0 0 0.397386 0 0 0 0 0.355556 0 0 0 0.0769231 0"/>
<feBlend mode="multiply" in2="BackgroundImageFix" result="effect1_dropShadow_3_442"/>
<feBlend mode="normal" in="SourceGraphic" in2="effect1_dropShadow_3_442" result="shape"/>
</filter>
<filter id="filter3_d_3_442" x="-29.082" y="0.0012207" width="218.151" height="258.727" filterUnits="userSpaceOnUse" color-interpolation-filters="sRGB">
<feFlood flood-opacity="0" result="BackgroundImageFix"/>
<feColorMatrix in="SourceAlpha" type="matrix" values="0 0 0 0 0 0 0 0 0 0 0 0 0 0 0 0 0 0 127 0" result="hardAlpha"/>
<feOffset/>
<feGaussianBlur stdDeviation="16"/>
<feColorMatrix type="matrix" values="0 0 0 0 0.0366013 0 0 0 0 0.397386 0 0 0 0 0.355556 0 0 0 0.0769231 0"/>
<feBlend mode="multiply" in2="BackgroundImageFix" result="effect1_dropShadow_3_442"/>
<feBlend mode="normal" in="SourceGraphic" in2="effect1_dropShadow_3_442" result="shape"/>
</filter>
<filter id="filter4_d_3_442" x="82.5635" y="-29.459" width="282.725" height="210.229" filterUnits="userSpaceOnUse" color-interpolation-filters="sRGB">
<feFlood flood-opacity="0" result="BackgroundImageFix"/>
<feColorMatrix in="SourceAlpha" type="matrix" values="0 0 0 0 0 0 0 0 0 0 0 0 0 0 0 0 0 0 127 0" result="hardAlpha"/>
<feOffset/>
<feGaussianBlur stdDeviation="16"/>
<feColorMatrix type="matrix" values="0 0 0 0 0.0366013 0 0 0 0 0.397386 0 0 0 0 0.355556 0 0 0 0.0769231 0"/>
<feBlend mode="multiply" in2="BackgroundImageFix" result="effect1_dropShadow_3_442"/>
<feBlend mode="normal" in="SourceGraphic" in2="effect1_dropShadow_3_442" result="shape"/>
</filter>
<filter id="filter5_d_3_442" x="53" y="416.304" width="457.9" height="387.595" filterUnits="userSpaceOnUse" color-interpolation-filters="sRGB">
<feFlood flood-opacity="0" result="BackgroundImageFix"/>
<feColorMatrix in="SourceAlpha" type="matrix" values="0 0 0 0 0 0 0 0 0 0 0 0 0 0 0 0 0 0 127 0" result="hardAlpha"/>
<feOffset/>
<feGaussianBlur stdDeviation="16"/>
<feColorMatrix type="matrix" values="0 0 0 0 0.0366013 0 0 0 0 0.397386 0 0 0 0 0.355556 0 0 0 0.0769231 0"/>
<feBlend mode="multiply" in2="BackgroundImageFix" result="effect1_dropShadow_3_442"/>
<feBlend mode="normal" in="SourceGraphic" in2="effect1_dropShadow_3_442" result="shape"/>
</filter>
<filter id="filter6_d_3_442" x="377.584" y="76.2517" width="124.28" height="113.166" filterUnits="userSpaceOnUse" color-interpolation-filters="sRGB">
<feFlood flood-opacity="0" result="BackgroundImageFix"/>
<feColorMatrix in="SourceAlpha" type="matrix" values="0 0 0 0 0 0 0 0 0 0 0 0 0 0 0 0 0 0 127 0" result="hardAlpha"/>
<feOffset/>
<feGaussianBlur stdDeviation="16"/>
<feColorMatrix type="matrix" values="0 0 0 0 0.0366013 0 0 0 0 0.397386 0 0 0 0 0.355556 0 0 0 0.0769231 0"/>
<feBlend mode="multiply" in2="BackgroundImageFix" result="effect1_dropShadow_3_442"/>
<feBlend mode="normal" in="SourceGraphic" in2="effect1_dropShadow_3_442" result="shape"/>
</filter>
<filter id="filter7_d_3_442" x="29.3464" y="1.26514" width="122.56" height="119.638" filterUnits="userSpaceOnUse" color-interpolation-filters="sRGB">
<feFlood flood-opacity="0" result="BackgroundImageFix"/>
<feColorMatrix in="SourceAlpha" type="matrix" values="0 0 0 0 0 0 0 0 0 0 0 0 0 0 0 0 0 0 127 0" result="hardAlpha"/>
<feOffset/>
<feGaussianBlur stdDeviation="16"/>
<feColorMatrix type="matrix" values="0 0 0 0 0.0366013 0 0 0 0 0.397386 0 0 0 0 0.355556 0 0 0 0.0769231 0"/>
<feBlend mode="multiply" in2="BackgroundImageFix" result="effect1_dropShadow_3_442"/>
<feBlend mode="normal" in="SourceGraphic" in2="effect1_dropShadow_3_442" result="shape"/>
</filter>
<filter id="filter8_d_3_442" x="295.189" y="293.77" width="170.742" height="148.882" filterUnits="userSpaceOnUse" color-interpolation-filters="sRGB">
<feFlood flood-opacity="0" result="BackgroundImageFix"/>
<feColorMatrix in="SourceAlpha" type="matrix" values="0 0 0 0 0 0 0 0 0 0 0 0 0 0 0 0 0 0 127 0" result="hardAlpha"/>
<feOffset/>
<feGaussianBlur stdDeviation="16"/>
<feColorMatrix type="matrix" values="0 0 0 0 0.0366013 0 0 0 0 0.397386 0 0 0 0 0.355556 0 0 0 0.0769231 0"/>
<feBlend mode="multiply" in2="BackgroundImageFix" result="effect1_dropShadow_3_442"/>
<feBlend mode="normal" in="SourceGraphic" in2="effect1_dropShadow_3_442" result="shape"/>
</filter>
<filter id="filter9_d_3_442" x="20.395" y="-2.82812" width="171.285" height="154.367" filterUnits="userSpaceOnUse" color-interpolation-filters="sRGB">
<feFlood flood-opacity="0" result="BackgroundImageFix"/>
<feColorMatrix in="SourceAlpha" type="matrix" values="0 0 0 0 0 0 0 0 0 0 0 0 0 0 0 0 0 0 127 0" result="hardAlpha"/>
<feOffset/>
<feGaussianBlur stdDeviation="16"/>
<feColorMatrix type="matrix" values="0 0 0 0 0.0366013 0 0 0 0 0.397386 0 0 0 0 0.355556 0 0 0 0.0769231 0"/>
<feBlend mode="multiply" in2="BackgroundImageFix" result="effect1_dropShadow_3_442"/>
<feBlend mode="normal" in="SourceGraphic" in2="effect1_dropShadow_3_442" result="shape"/>
</filter>
<filter id="filter10_d_3_442" x="185.978" y="286.079" width="257.82" height="242.2" filterUnits="userSpaceOnUse" color-interpolation-filters="sRGB">
<feFlood flood-opacity="0" result="BackgroundImageFix"/>
<feColorMatrix in="SourceAlpha" type="matrix" values="0 0 0 0 0 0 0 0 0 0 0 0 0 0 0 0 0 0 127 0" result="hardAlpha"/>
<feOffset/>
<feGaussianBlur stdDeviation="16"/>
<feColorMatrix type="matrix" values="0 0 0 0 0.0366013 0 0 0 0 0.397386 0 0 0 0 0.355556 0 0 0 0.0769231 0"/>
<feBlend mode="multiply" in2="BackgroundImageFix" result="effect1_dropShadow_3_442"/>
<feBlend mode="normal" in="SourceGraphic" in2="effect1_dropShadow_3_442" result="shape"/>
</filter>
<filter id="filter11_d_3_442" x="16.3202" y="56.9475" width="126.622" height="124.994" filterUnits="userSpaceOnUse" color-interpolation-filters="sRGB">
<feFlood flood-opacity="0" result="BackgroundImageFix"/>
<feColorMatrix in="SourceAlpha" type="matrix" values="0 0 0 0 0 0 0 0 0 0 0 0 0 0 0 0 0 0 127 0" result="hardAlpha"/>
<feOffset/>
<feGaussianBlur stdDeviation="16"/>
<feColorMatrix type="matrix" values="0 0 0 0 0.0366013 0 0 0 0 0.397386 0 0 0 0 0.355556 0 0 0 0.0769231 0"/>
<feBlend mode="multiply" in2="BackgroundImageFix" result="effect1_dropShadow_3_442"/>
<feBlend mode="normal" in="SourceGraphic" in2="effect1_dropShadow_3_442" result="shape"/>
</filter>
<filter id="filter12_d_3_442" x="380.073" y="504.661" width="552.604" height="430.371" filterUnits="userSpaceOnUse" color-interpolation-filters="sRGB">
<feFlood flood-opacity="0" result="BackgroundImageFix"/>
<feColorMatrix in="SourceAlpha" type="matrix" values="0 0 0 0 0 0 0 0 0 0 0 0 0 0 0 0 0 0 127 0" result="hardAlpha"/>
<feOffset/>
<feGaussianBlur stdDeviation="16"/>
<feColorMatrix type="matrix" values="0 0 0 0 0.0366013 0 0 0 0 0.397386 0 0 0 0 0.355556 0 0 0 0.0769231 0"/>
<feBlend mode="multiply" in2="BackgroundImageFix" result="effect1_dropShadow_3_442"/>
<feBlend mode="normal" in="SourceGraphic" in2="effect1_dropShadow_3_442" result="shape"/>
</filter>
<filter id="filter13_d_3_442" x="-23.0969" y="688.645" width="255.432" height="221.126" filterUnits="userSpaceOnUse" color-interpolation-filters="sRGB">
<feFlood flood-opacity="0" result="BackgroundImageFix"/>
<feColorMatrix in="SourceAlpha" type="matrix" values="0 0 0 0 0 0 0 0 0 0 0 0 0 0 0 0 0 0 127 0" result="hardAlpha"/>
<feOffset/>
<feGaussianBlur stdDeviation="16"/>
<feColorMatrix type="matrix" values="0 0 0 0 0.0366013 0 0 0 0 0.397386 0 0 0 0 0.355556 0 0 0 0.0769231 0"/>
<feBlend mode="multiply" in2="BackgroundImageFix" result="effect1_dropShadow_3_442"/>
<feBlend mode="normal" in="SourceGraphic" in2="effect1_dropShadow_3_442" result="shape"/>
</filter>
<clipPath id="clip0_3_442">
<rect width="830" height="1024" fill="white" transform="translate(-2)"/>
</clipPath>
</defs>
</svg>
