<svg width="260" height="260" viewBox="0 0 260 260" fill="none" xmlns="http://www.w3.org/2000/svg">
<path d="M83.421 102.014H64.4046C63.8752 102.014 63.3511 101.909 62.8623 101.707C62.3732 101.504 61.9289 101.207 61.555 100.832C61.1809 100.457 60.8845 100.013 60.6822 99.5238C60.4802 99.0345 60.3764 98.5101 60.3772 97.981V52.26C60.3772 51.7312 60.4815 51.2075 60.6837 50.719C60.8863 50.2307 61.1829 49.7869 61.5571 49.413C61.931 49.0391 62.375 48.7427 62.8636 48.5407C63.3521 48.3387 63.8758 48.2347 64.4046 48.2352H95.7996C96.3295 48.2334 96.8542 48.3363 97.3443 48.5376C97.8341 48.7391 98.2795 49.0352 98.6549 49.4091C99.0301 49.783 99.3281 50.2273 99.5314 50.7164C99.7347 51.2057 99.8397 51.7301 99.84 52.26V64.5918" stroke="#CCDDE2" stroke-width="4.5" stroke-miterlimit="10"/>
<path d="M94.8454 53.7753H65.7696C64.6568 53.7753 63.7546 54.6775 63.7546 55.7903V61.2191C63.7546 62.3319 64.6568 63.2341 65.7696 63.2341H94.8454C95.9582 63.2341 96.8604 62.3319 96.8604 61.2191V55.7903C96.8604 54.6775 95.9582 53.7753 94.8454 53.7753Z" stroke="#CCDDE2" stroke-width="4.5" stroke-miterlimit="10"/>
<path d="M80.1035 57.7587C80.6435 57.7587 81.0811 57.3209 81.0811 56.7811C81.0811 56.2411 80.6435 55.8035 80.1035 55.8035C79.5634 55.8035 79.1259 56.2411 79.1259 56.7811C79.1259 57.3209 79.5634 57.7587 80.1035 57.7587Z" fill="#D7E8F0"/>
<path d="M77.3709 61.2087C77.348 60.8361 77.4013 60.4627 77.5282 60.1115C77.6551 59.7602 77.8524 59.4386 78.1082 59.1666C78.3638 58.8947 78.6727 58.6778 79.0154 58.5296C79.3581 58.3814 79.7275 58.305 80.1009 58.305C80.4742 58.305 80.8437 58.3814 81.1864 58.5296C81.5291 58.6778 81.8379 58.8947 82.0938 59.1666C82.3494 59.4386 82.5467 59.7602 82.6736 60.1115C82.8005 60.4627 82.854 60.8361 82.8309 61.2087H77.3709Z" fill="#D7E8F0"/>
<path d="M80.3037 73.3718C79.2614 73.3718 78.2424 73.6809 77.3759 74.2599C76.509 74.8392 75.8335 75.6621 75.4347 76.6251C75.0359 77.5882 74.9313 78.6479 75.1347 79.6703C75.3382 80.6926 75.84 81.6314 76.5771 82.3685C77.3142 83.1056 78.2531 83.6077 79.2754 83.811C80.2977 84.0143 81.3575 83.9098 82.3205 83.511C83.2836 83.1121 84.1067 82.4367 84.6858 81.5701C85.2648 80.7032 85.5739 79.6843 85.5739 78.642C85.5742 77.9498 85.4382 77.2645 85.1735 76.6249C84.9086 75.9853 84.5204 75.4042 84.0311 74.9146C83.5415 74.4253 82.9604 74.0371 82.3211 73.7724C81.6815 73.5075 80.9958 73.3715 80.3037 73.3718ZM80.3037 82.6382C80.1212 82.608 79.9556 82.5141 79.836 82.3732C79.7164 82.2323 79.6506 82.0534 79.6506 81.8686C79.6506 81.6837 79.7164 81.5048 79.836 81.3639C79.9556 81.223 80.1212 81.1291 80.3037 81.099C80.4153 81.0805 80.5297 81.0867 80.6389 81.1169C80.7478 81.1471 80.8489 81.2006 80.9353 81.2739C81.0216 81.347 81.091 81.4383 81.1386 81.541C81.1862 81.6437 81.2106 81.7555 81.2106 81.8686C81.2106 81.9817 81.1862 82.0937 81.1386 82.1964C81.091 82.2991 81.0216 82.3901 80.9353 82.4634C80.8489 82.5365 80.7478 82.5901 80.6389 82.6202C80.5297 82.6506 80.4153 82.6566 80.3037 82.6382ZM81.2787 76.7128C81.1531 77.8783 80.9386 79.0327 80.6365 80.1656C80.6048 80.2261 80.5572 80.2766 80.4987 80.3119C80.4402 80.3473 80.3734 80.366 80.305 80.366C80.2366 80.366 80.1698 80.3473 80.1113 80.3119C80.0528 80.2766 80.0052 80.2261 79.9735 80.1656C79.733 79.3304 79.5487 78.48 79.4223 77.6202C79.3157 76.9962 78.9517 75.9822 79.3001 75.3738C79.6069 74.8304 80.4753 74.7654 80.9771 75.0488C81.5933 75.3998 81.3515 76.1434 81.2787 76.7128Z" fill="#D7E8F0"/>
<path d="M67.0645 67.4567H92.8071" stroke="#CCDDE2" stroke-width="4.5" stroke-miterlimit="10"/>
<path d="M67.0645 69.9918H92.8071" stroke="#CCDDE2" stroke-width="4.5" stroke-miterlimit="10"/>
<path d="M67.0645 86.3068H92.8071" stroke="#CCDDE2" stroke-width="4.5" stroke-miterlimit="10"/>
<path d="M73.0444 88.7047H86.827" stroke="#CCDDE2" stroke-width="4.5" stroke-miterlimit="10"/>
<path d="M226.099 92.2431H186.638C183.353 92.2431 180.69 94.9065 180.69 98.1919V165.587C180.69 168.872 183.353 171.535 186.638 171.535H226.099C229.384 171.535 232.047 168.872 232.047 165.587V98.1919C232.047 94.9065 229.384 92.2431 226.099 92.2431Z" fill="#01C8A4"/>
<path d="M172.159 92.2431H144.682C141.397 92.2431 138.733 94.9065 138.733 98.1919V165.587C138.733 168.872 141.397 171.535 144.682 171.535H172.159C175.444 171.535 178.108 168.872 178.108 165.587V98.1919C178.108 94.9065 175.444 92.2431 172.159 92.2431Z" fill="#01C8A4"/>
<path d="M141.008 211.856H231.764C233.332 211.855 234.836 211.232 235.945 210.124C237.054 209.015 237.678 207.512 237.679 205.944V93.2883C237.679 92.5114 237.527 91.7421 237.23 91.0242C236.932 90.3064 236.497 89.6543 235.947 89.1049C235.398 88.5555 234.746 88.12 234.028 87.8228C233.31 87.5257 232.541 87.3728 231.764 87.3733H170.087L153.967 87.4695H153.92L145.769 87.7867H145.743L143.598 87.8699H143.408L143.25 89.1465L142.938 91.5203C142.941 91.5247 142.943 91.5302 142.943 91.5359C142.943 91.5414 142.941 91.5468 142.938 91.5515L140.4 95.3111L139.88 96.0729L138.447 105.24V105.285C138.416 105.272 138.385 105.253 138.346 105.233C138.315 105.214 138.285 105.194 138.258 105.17C137.776 104.807 137.413 104.308 137.218 103.738C136.742 102.531 136.627 100.932 136.622 99.6635L136.31 106.629V106.655L135.876 115.96L135.769 118.459C135.972 118.097 136.263 117.577 136.601 116.956L135.522 123.851L135.299 128.82L134.742 141.375L134.722 141.843V142.023L134.576 145.08V145.15C134.576 145.15 134.16 154.123 134.16 154.136L134.121 154.968L133.64 158.6L132.236 168.764V205.944C132.236 207.003 132.522 208.043 133.063 208.953C133.603 209.864 134.38 210.613 135.309 211.12C137.069 212.074 139.017 211.947 140.951 211.882C141.471 211.866 141.991 211.843 142.511 211.814" fill="#01C8A4"/>
<path d="M137.564 209.917C137.527 209.917 137.488 209.883 137.444 209.87C136.95 209.693 136.482 209.448 136.055 209.142C135.306 208.61 134.696 207.905 134.276 207.088C133.856 206.271 133.637 205.365 133.64 204.446V154.828L132.236 155.501L132.148 155.546L131.958 155.075L131.019 152.735L130.759 152.088L128.385 146.162C128.385 146.162 132.894 127.921 135.876 115.961C136.968 111.569 137.857 108.023 138.232 106.533C138.346 106.088 138.414 105.828 138.427 105.784C138.428 105.774 138.428 105.763 138.427 105.753C138.434 105.664 138.421 105.575 138.388 105.493C138.351 105.397 138.306 105.304 138.255 105.215C138.249 105.196 138.24 105.179 138.229 105.163C137.92 104.637 137.572 104.134 137.189 103.66L136.695 97.5421L136.776 97.4797L137.15 97.1807L139.709 95.1527L140.304 93.5771L141.471 90.5143L141.991 89.1493H143.229H143.546H145.785L154.058 89.1233H154.768L170.464 89.0297H230.521C231.278 89.0297 232.026 89.1787 232.725 89.4683C233.424 89.758 234.058 90.1826 234.593 90.7176C235.127 91.2527 235.551 91.8879 235.839 92.587C236.128 93.2859 236.276 94.035 236.275 94.7913V204.446C236.276 205.203 236.128 205.951 235.839 206.651C235.551 207.349 235.127 207.985 234.593 208.52C234.058 209.055 233.424 209.479 232.725 209.769C232.026 210.059 231.278 210.208 230.521 210.208H141.118" fill="#01C8A4"/>
<path d="M143.572 87.5267L145.699 87.5137H145.743L153.907 87.4695H153.964L170.084 87.3733H231.764C233.333 87.3738 234.837 87.9973 235.946 89.1065C237.055 90.2156 237.678 91.7197 237.679 93.2883V205.944C237.678 207.512 237.054 209.015 235.945 210.124C234.836 211.232 233.332 211.855 231.764 211.856H137.99C136.462 211.856 134.996 211.249 133.916 210.168C132.835 209.088 132.228 207.623 132.228 206.094V193.794" stroke="black" stroke-width="4.5" stroke-miterlimit="10"/>
<path d="M226.099 177.359H144.682C141.397 177.359 138.733 180.022 138.733 183.307V199.846C138.733 203.132 141.397 205.795 144.682 205.795H226.099C229.384 205.795 232.047 203.132 232.047 199.846V183.307C232.047 180.022 229.384 177.359 226.099 177.359Z" fill="white"/>
<path d="M199.181 183.693H146.588C145.475 183.693 144.573 184.595 144.573 185.708V197.855C144.573 198.968 145.475 199.87 146.588 199.87H199.181C200.294 199.87 201.196 198.968 201.196 197.855V185.708C201.196 184.595 200.294 183.693 199.181 183.693Z" fill="#01C8A4"/>
<path d="M189.745 190.507C190.67 190.507 191.42 189.758 191.42 188.833C191.42 187.908 190.67 187.158 189.745 187.158C188.821 187.158 188.071 187.908 188.071 188.833C188.071 189.758 188.821 190.507 189.745 190.507Z" fill="white"/>
<path d="M185.071 196.404C185.071 195.163 185.564 193.972 186.441 193.094C187.319 192.217 188.509 191.724 189.751 191.724C190.992 191.724 192.182 192.217 193.06 193.094C193.938 193.972 194.431 195.163 194.431 196.404H185.071Z" fill="white"/>
<path d="M215.48 183.695C213.85 183.694 212.255 184.176 210.899 185.08C209.542 185.985 208.485 187.272 207.86 188.778C207.235 190.284 207.071 191.942 207.388 193.541C207.705 195.141 208.49 196.61 209.643 197.763C210.795 198.917 212.264 199.702 213.863 200.02C215.462 200.339 217.12 200.176 218.626 199.552C220.133 198.928 221.42 197.871 222.326 196.515C223.232 195.159 223.715 193.565 223.714 191.935C223.715 190.853 223.502 189.782 223.088 188.782C222.675 187.783 222.068 186.874 221.304 186.109C220.539 185.344 219.631 184.737 218.632 184.323C217.633 183.909 216.562 183.695 215.48 183.695ZM215.48 198.185C215.317 198.193 215.154 198.167 215.002 198.11C214.849 198.053 214.709 197.965 214.591 197.852C214.473 197.74 214.379 197.604 214.315 197.454C214.251 197.304 214.218 197.143 214.218 196.98C214.218 196.817 214.251 196.655 214.315 196.505C214.379 196.355 214.473 196.22 214.591 196.107C214.709 195.994 214.849 195.907 215.002 195.85C215.154 195.793 215.317 195.767 215.48 195.775C215.79 195.789 216.083 195.922 216.297 196.147C216.511 196.371 216.631 196.669 216.631 196.98C216.631 197.29 216.511 197.588 216.297 197.813C216.083 198.037 215.79 198.17 215.48 198.185ZM216.996 188.916C216.736 190.705 216.525 192.582 215.992 194.314C215.873 194.732 215.085 194.732 214.952 194.314C214.575 193.009 214.286 191.68 214.089 190.336C213.923 189.361 213.353 187.775 213.899 186.828C214.38 185.978 215.738 185.877 216.518 186.308C217.49 186.859 217.1 188.027 216.996 188.916Z" fill="#01C8A4"/>
<path d="M224.232 149.562C223.832 153.007 222.406 156.253 220.139 158.877C217.871 161.501 214.867 163.383 211.517 164.278C208.166 165.173 204.624 165.04 201.35 163.896C198.076 162.752 195.222 160.65 193.158 157.863C191.094 155.076 189.916 151.732 189.776 148.267C189.636 144.802 190.542 141.375 192.375 138.431C194.208 135.487 196.884 133.162 200.055 131.758C203.226 130.354 206.746 129.937 210.158 130.559C210.308 130.588 210.451 130.647 210.577 130.733C210.703 130.82 210.81 130.931 210.892 131.06C210.973 131.189 211.028 131.333 211.051 131.484C211.075 131.635 211.067 131.789 211.029 131.937L210.688 133.266L207.636 145.184C207.587 145.374 207.59 145.574 207.642 145.763C207.695 145.952 207.797 146.123 207.937 146.261C208.077 146.398 208.251 146.496 208.441 146.545C208.631 146.593 208.83 146.591 209.019 146.539L220.867 143.226L222.487 142.774C222.632 142.733 222.783 142.722 222.931 142.741C223.08 142.76 223.223 142.809 223.353 142.884C223.482 142.959 223.595 143.06 223.685 143.18C223.775 143.3 223.84 143.437 223.876 143.582C224.342 145.54 224.463 147.564 224.232 149.562Z" fill="white"/>
<path d="M224.64 137.28C224.696 137.425 224.721 137.581 224.713 137.736C224.705 137.892 224.665 138.044 224.595 138.183C224.524 138.322 224.426 138.445 224.305 138.543C224.184 138.641 224.044 138.713 223.894 138.754L222.778 139.066L213.13 141.762C212.941 141.815 212.741 141.817 212.551 141.768C212.361 141.719 212.188 141.621 212.047 141.484C211.907 141.347 211.806 141.175 211.753 140.986C211.7 140.797 211.698 140.598 211.747 140.408L214.24 130.705L214.479 129.774C214.517 129.626 214.585 129.487 214.678 129.366C214.771 129.246 214.889 129.146 215.023 129.073C215.157 129 215.304 128.955 215.457 128.941C215.609 128.927 215.762 128.945 215.907 128.994C217.87 129.671 219.665 130.761 221.171 132.19C222.678 133.62 223.86 135.355 224.64 137.28Z" fill="white"/>
<path d="M206.814 107.749C209.439 107.749 211.567 105.621 211.567 102.996C211.567 100.371 209.439 98.2433 206.814 98.2433C204.189 98.2433 202.062 100.371 202.062 102.996C202.062 105.621 204.189 107.749 206.814 107.749Z" fill="#D7E8F0"/>
<path d="M224.346 113.5H189.748V114.452H224.346V113.5Z" fill="#D7E8F0"/>
<path d="M224.346 117.02H189.748V117.972H224.346V117.02Z" fill="#D7E8F0"/>
<path d="M224.346 120.23H189.748V121.181H224.346V120.23Z" fill="#D7E8F0"/>
<path d="M172.05 133.38H144.948V134.332H172.05V133.38Z" fill="#D7E8F0"/>
<path d="M172.05 137.22H144.948V138.172H172.05V137.22Z" fill="#D7E8F0"/>
<path d="M172.05 141.058H144.948V142.01H172.05V141.058Z" fill="#D7E8F0"/>
<path d="M172.05 144.898H144.948V145.85H172.05V144.898Z" fill="#D7E8F0"/>
<path d="M172.05 148.738H144.948V149.69H172.05V148.738Z" fill="#D7E8F0"/>
<path d="M141.229 106.341C141.229 106.341 149.466 119.312 158.852 123.389C168.238 127.466 171.171 129.267 174.762 127.809C178.352 126.35 185.245 124.307 190.102 109.869C194.958 95.431 197.273 87.8312 197.444 84.3342C197.616 80.8372 187.959 83.7102 187.959 83.7102C187.959 83.7102 182.759 99.0371 171.366 105.878L155.139 88.7386L141.229 106.341Z" fill="white"/>
<path d="M131.604 126.275L138.234 128.074C138.234 128.074 130.536 138.69 137.381 149.805C144.227 160.92 158.324 183.345 158.324 183.345L185.307 226.245L160.072 222.727L141.229 202.088L131.609 192.497L119.553 154.862L131.604 126.275Z" fill="white"/>
<path d="M23.3507 181.135C23.9468 181.457 24.6369 181.561 25.3015 181.429C25.9662 181.296 26.5637 180.936 26.9907 180.409L36.8031 168.379L44.7201 158.442L38.2383 154.802C37.5669 154.423 36.7724 154.326 36.0296 154.532C35.2865 154.738 34.6557 155.231 34.2759 155.902L22.1963 177.118C22.0039 177.456 21.881 177.83 21.835 178.216C21.7889 178.603 21.8206 178.995 21.9281 179.369C22.0357 179.743 22.2169 180.092 22.4612 180.396C22.7055 180.699 23.0079 180.95 23.3507 181.135Z" fill="#2E2E2E"/>
<path d="M172.71 237.88L180.877 245.914C181.582 246.609 182.531 246.999 183.521 247.001H203.944C204.578 247.003 205.198 246.821 205.73 246.477C206.262 246.133 206.682 245.641 206.939 245.062C207.196 244.483 207.28 243.842 207.179 243.217C207.077 242.591 206.797 242.009 206.37 241.541C205.833 240.94 205.091 240.562 204.29 240.48L192.962 239.318L172.71 237.88Z" fill="#2E2E2E"/>
<path d="M98.1319 137.394C98.1319 137.394 113.927 141.788 124.457 143.098C134.987 144.409 134.248 140.041 134.248 140.041L135.535 134.523C138.915 129.017 140.878 117.301 140.878 117.301L142.236 108.136L144.217 111.623L150.621 118.073L150.699 118.136C150.504 115.055 150.652 110.726 151.369 104.829C153.023 91.1789 158.499 92.7623 158.499 92.7623L157.695 91.8809C153.912 85.5863 141.835 78.9329 137.977 77.3417C134.118 75.7505 135.769 78.0047 136.261 79.6817C136.752 81.3587 135.348 86.0777 129.724 83.6753C124.101 81.2729 123.817 76.0469 123.817 76.0469H121.204C105.175 77.9735 97.0243 86.5223 97.0243 86.5223C114.052 90.5393 110.144 104.982 110.144 104.982L108.599 106.394C102.554 111.636 102.133 116.69 102.656 118.796C103.178 120.902 106.907 123.736 113.638 125.379C120.37 127.022 121.594 127.025 123.115 124.116C124.636 121.206 126.409 120.847 128.835 120.411C131.261 119.974 134.233 121.698 133.554 123.055C132.876 124.412 132.384 123.226 134.074 126.892C135.764 130.558 134.979 132.423 130.434 135.8C125.889 139.177 105.682 137.282 105.682 137.282C96.0181 134.609 98.1319 137.394 98.1319 137.394Z" fill="#2E2E2E"/>
<path d="M135.075 76.1335V76.6873V76.8277C139.593 77.9566 143.848 79.9542 147.602 82.7089C148.21 83.1535 148.803 83.6059 149.388 84.0817C149.404 82.1707 149.24 80.2519 148.624 78.4423C148.125 76.8893 147.184 75.5154 145.917 74.4877C144.802 73.5985 143.484 73.0291 142.158 72.5143C140.832 71.9995 139.529 71.5471 138.312 70.8529C137.287 70.292 136.391 69.5211 135.684 68.5909C135.436 68.2544 135.281 67.8584 135.235 67.443C135.19 67.0275 135.255 66.6073 135.424 66.2249C135.304 66.2165 135.186 66.1931 135.073 66.1547L135.075 76.1335Z" fill="#01C8A4"/>
<path d="M135.075 76.1335V76.6873V76.8277C139.593 77.9566 143.848 79.9542 147.602 82.7089C148.21 83.1535 148.803 83.6059 149.388 84.0817C149.404 82.1707 149.24 80.2519 148.624 78.4423C148.125 76.8893 147.184 75.5154 145.917 74.4877C144.802 73.5985 143.484 73.0291 142.158 72.5143C140.832 71.9995 139.529 71.5471 138.312 70.8529C137.287 70.292 136.391 69.5211 135.684 68.5909C135.436 68.2544 135.281 67.8584 135.235 67.443C135.19 67.0275 135.255 66.6073 135.424 66.2249C135.304 66.2165 135.186 66.1931 135.073 66.1547L135.075 76.1335Z" fill="#01C8A4"/>
<path d="M72.6571 119.299C74.3546 120.514 76.2417 121.439 78.2419 122.037C79.1022 122.302 79.9763 122.521 80.8601 122.692C77.3683 114.463 79.9813 103.637 91.0001 92.0925C92.8866 90.1126 94.8954 88.2526 97.0139 86.5233C100.438 83.7387 103.48 81.6639 107.068 79.9947C108.674 79.2535 110.324 78.6102 112.008 78.0681C114.994 77.0741 118.076 76.3968 121.204 76.0479C121.914 75.9621 122.616 75.8997 123.326 75.8607C123.153 74.6416 123.187 73.4022 123.427 72.1947C124.082 68.8797 125.224 66.9739 127.299 64.3609C128.599 62.7151 130.629 58.7839 127.923 57.4267C126.214 56.5765 126.058 54.8267 126.862 53.7867C127.54 52.8819 128.913 52.4685 130.606 53.5267C131.776 54.2755 133.164 54.3223 134.506 53.9557C135.548 53.3486 136.451 52.5304 137.158 51.5533C139.123 48.7375 139.194 44.4709 136.118 42.4039C134.441 41.2729 132.304 40.9999 130.299 41.2183C129.402 41.3169 128.517 41.5103 127.66 41.7955C127.656 41.7937 127.652 41.7929 127.648 41.7929C127.644 41.7929 127.64 41.7937 127.637 41.7955C123.997 43.7533 121.41 47.3725 120.162 51.4519C119.428 53.8621 118.602 56.2489 117.634 58.5889C116.839 60.5077 116.285 62.8399 114.514 64.1503C113.775 64.6976 112.934 65.0952 112.042 65.3203C108.696 67.4419 104.055 66.2173 100.396 65.7649C97.4717 65.365 94.4939 65.6643 91.7073 66.6385C88.5873 68.2167 85.9041 70.7361 83.7279 74.0121C80.1321 79.4331 83.9385 87.2487 77.9247 91.5231C76.1047 92.8101 74.0247 93.5901 72.0357 94.5885C69.1965 96.0315 66.9033 98.0829 66.0557 101.242C64.3813 107.615 67.3609 115.454 72.6571 119.299Z" fill="#01C8A4"/>
<path d="M219.7 247H77.4176" stroke="black" stroke-width="4.5" stroke-miterlimit="10"/>
<path d="M140.293 48.9863C140.659 49.744 140.972 50.5258 141.229 51.3263C141.604 52.6263 141.198 53.4323 141.768 54.6725C141.963 55.1015 142.243 55.8269 142.548 56.5601C142.633 56.3885 142.711 56.2481 142.758 56.1389C144.989 51.1703 142.056 48.7757 140.644 47.9567C140.554 48.3088 140.437 48.653 140.293 48.9863Z" fill="#01C8A4"/>
<path d="M140.293 48.9863C140.659 49.744 140.972 50.5258 141.229 51.3263C141.604 52.6263 141.198 53.4323 141.768 54.6725C141.963 55.1015 142.243 55.8269 142.548 56.5601C142.633 56.3885 142.711 56.2481 142.758 56.1389C144.989 51.1703 142.056 48.7757 140.644 47.9567C140.554 48.3088 140.437 48.653 140.293 48.9863Z" fill="#01C8A4"/>
<path d="M90.8622 132.808C89.4998 143.552 90.6022 162.188 112.603 176.447C116.563 179.013 120.128 182.637 123.62 185.77C133.143 194.377 142.203 203.482 150.761 213.05C156 218.858 161.348 224.963 166.66 230.844C169.383 233.85 172.136 236.827 174.918 239.778C176.966 241.938 180.216 246.998 183.511 246.998H203.754C205.574 246.998 207.228 245.508 207.202 243.68C207.187 242.89 206.888 242.132 206.359 241.545C205.823 240.945 205.081 240.567 204.279 240.485L192.951 239.323L138.219 152.28C135.395 147.787 132.891 140.393 135.075 135.549C143.395 117.125 142.68 99.2683 142.68 99.2683" stroke="black" stroke-width="4.5" stroke-miterlimit="10"/>
<path d="M119.2 182.047C116.813 190.432 112.96 198.947 109.777 204.308C108.624 206.265 107.104 207.982 105.3 209.362C98.7793 214.357 89.5623 213.824 83.3093 208.502L52.2107 182.031L36.8057 168.379L26.9933 180.409C26.5295 180.973 25.8706 181.343 25.1472 181.446C24.4237 181.548 23.6882 181.376 23.0857 180.962C22.4832 180.549 22.0576 179.924 21.893 179.213C21.7283 178.501 21.8366 177.753 22.1963 177.117L34.2785 155.906C34.6584 155.235 35.2891 154.743 36.0322 154.536C36.775 154.33 37.5696 154.427 38.2409 154.807L44.7227 158.447L81.8611 179.247C82.4789 179.592 83.17 179.786 83.8774 179.813C84.5851 179.839 85.2887 179.698 85.9306 179.399C86.5726 179.101 87.1347 178.654 87.5702 178.096C88.006 177.538 88.3029 176.884 88.4365 176.189L92.8357 153.122" stroke="black" stroke-width="4.5" stroke-miterlimit="10"/>
<path d="M135.075 64.6097V76.0497V76.6035V76.7439C136.253 78.4599 136.846 80.9039 135.723 82.7239C134.217 85.1653 130.894 84.7597 128.788 83.3947C128.169 82.9938 127.577 82.5508 127.018 82.0687C125.143 80.4401 123.93 78.1815 123.607 75.7195C123.433 74.5004 123.468 73.261 123.708 72.0535C124.368 68.7411 125.507 66.8379 127.585 64.2171C128.885 62.5791 130.913 58.6427 128.203 57.2855C125.029 55.7021 127.228 51.0689 130.887 53.3855C133.726 55.1873 137.805 52.9409 139.49 50.5255C141.456 47.7097 141.526 43.4431 138.45 41.3761C136.773 40.2451 134.636 39.9721 132.631 40.1905C126.524 40.8613 122.177 45.6349 120.437 51.3133C119.704 53.7235 118.877 56.1103 117.91 58.4503C117.114 60.3691 116.561 62.7013 114.79 64.0117C111.41 66.5311 106.538 65.2129 102.723 64.7449C94.783 63.7699 88.3792 67.2877 84.0034 73.8735C80.4076 79.2945 84.214 87.1101 78.2002 91.3845C76.3802 92.6715 74.3002 93.4515 72.3112 94.4499C69.472 95.8929 67.1788 97.9443 66.3442 101.103C64.6594 107.468 67.6442 115.307 72.9352 119.153C75.361 120.915 78.2002 121.968 81.1486 122.546" stroke="black" stroke-width="4.5" stroke-miterlimit="10"/>
<path d="M150.751 85.5634C150.766 85.4178 150.771 85.2774 150.779 85.1396C150.912 82.6254 150.896 80.0202 150.077 77.5996C149.575 76.0485 148.634 74.6757 147.368 73.6476C146.25 72.761 144.932 72.1864 143.611 71.6716C142.29 71.1568 140.98 70.7096 139.766 70.0128C138.738 69.4543 137.841 68.6821 137.137 67.7482C136.89 67.4128 136.736 67.0181 136.691 66.604C136.645 66.19 136.709 65.7712 136.877 65.39" stroke="black" stroke-width="4.5" stroke-miterlimit="10"/>
<path d="M132.613 62.0305C133.533 63.3461 134.781 64.7657 136.354 65.2779C138.39 65.9409 139.76 64.2119 140.491 62.5297C140.928 61.5287 141.229 60.4627 141.583 59.4279C141.697 59.0873 141.768 58.9235 142.158 58.9079C142.548 58.8923 142.958 58.9703 143.359 58.9703C143.387 58.9696 143.415 58.9612 143.439 58.9464C143.464 58.9316 143.484 58.9105 143.497 58.8853C143.51 58.8601 143.517 58.832 143.516 58.8034C143.515 58.7751 143.507 58.7472 143.491 58.7233C142.953 57.9043 142.15 55.6709 141.744 54.7765C141.18 53.5363 141.588 52.7329 141.209 51.4303C140.95 50.6306 140.64 49.8488 140.278 49.0903" stroke="black" stroke-width="4.5" stroke-miterlimit="10"/>
<path d="M140.878 46.6854C140.878 46.6854 146.429 48.8148 143.562 55.2134C143.385 55.6008 142.951 56.4094 142.745 56.7734" stroke="black" stroke-width="4.5" stroke-miterlimit="10"/>
<path d="M200.754 28.4417C200.754 28.4417 200.785 28.4573 200.848 28.4807L200.754 28.4417Z" fill="#01C8A4"/>
<path d="M140.572 62.3452C140.127 62.4063 139.676 62.303 139.302 62.0553C138.928 61.8072 138.658 61.4315 138.541 60.9984" stroke="black" stroke-width="4.5" stroke-miterlimit="10"/>
<path d="M141.51 53.7761C140.361 52.8401 139.1 54.0361 138.33 54.9045" stroke="black" stroke-width="4.5" stroke-miterlimit="10"/>
<path d="M123.615 75.7219C119.76 75.9661 115.954 76.706 112.289 77.9241C106.309 79.8845 102.191 82.4143 97.3051 86.3793C95.1869 88.112 93.1784 89.9746 91.2913 91.9563C80.2621 103.5 77.6543 114.332 81.1513 122.558C83.9931 129.261 90.5451 133.419 97.2583 135.538C101.65 136.921 106.226 137.516 110.817 137.649C116.29 137.805 121.81 137.597 127.197 136.557C129.467 136.12 132.083 135.761 133.437 133.653C134.792 131.544 134.906 128.7 133.9 126.44C132.956 124.337 130.408 122.075 128.105 123.726C127.849 123.91 127.639 124.15 127.49 124.427C127.341 124.705 127.257 125.013 127.244 125.327" stroke="black" stroke-width="4.5" stroke-miterlimit="10"/>
<path d="M119.452 89.6319C119.738 98.2535 112.432 103.061 112.432 103.061C110.009 105.024 107.653 107.132 105.672 109.548C104.406 111.09 103.23 112.816 102.648 114.748C102.213 116.065 102.22 117.489 102.669 118.801C103.165 120.015 103.986 121.069 105.04 121.849C107.011 123.39 109.408 124.189 111.784 124.88C114.403 125.629 117.07 126.198 119.766 126.58C121.326 126.804 121.984 126.32 122.697 124.971C123.341 123.749 123.869 122.335 125.063 121.536C126.716 120.426 128.937 120.169 130.85 120.626C133.801 121.328 134.555 123.668 132.15 124.142" stroke="black" stroke-width="4.5" stroke-miterlimit="10"/>
<path d="M117.65 148.124L72.8131 137.29L62.1427 181.449L105.737 192.285L107.136 191.643L117.65 148.124Z" fill="white"/>
<path d="M96.9618 141.916C99.0886 127.028 103.698 123.347 106.699 122.611L106.501 122.502C97.4428 118.976 91.1612 136.42 89.8274 140.499L96.9618 141.916Z" fill="#D7E8F0"/>
<path d="M96.8371 143.096C98.9639 128.208 103.698 123.336 106.699 122.611L106.501 122.501C97.4429 118.976 90.9013 137.259 89.5623 141.336L96.8371 143.096Z" fill="#D7E8F0"/>
<path d="M106.501 122.501C96.2573 118.518 89.5623 141.336 89.5623 141.336L96.8423 143.096C101.072 120.216 110.149 124.376 110.149 124.376C109.829 124.28 106.501 122.501 106.501 122.501Z" stroke="black" stroke-width="4.5" stroke-miterlimit="10"/>
<path d="M72.3137 139.395L62.1443 181.463L97.5175 190.014L107.687 147.946L72.3137 139.395Z" fill="#01C8A4"/>
<path d="M72.8534 137.168L62.145 181.465L99.3908 190.469L110.099 146.172L72.8534 137.168Z" fill="white"/>
<path d="M73.0288 140.537L63.8061 178.688C63.5448 179.769 64.2096 180.858 65.2912 181.12L96.7476 188.724C97.8292 188.985 98.918 188.32 99.1796 187.239L108.402 149.088C108.664 148.006 107.999 146.917 106.917 146.656L75.4608 139.052C74.3792 138.79 73.2904 139.455 73.0288 140.537Z" fill="#01C8A4"/>
<path d="M72.8203 137.306L62.1455 181.464L99.3915 190.468L110.066 146.31L72.8203 137.306Z" stroke="black" stroke-width="4.5" stroke-miterlimit="10"/>
<path d="M110.223 146.345L99.5479 190.503L106.983 192.3L117.658 148.142L110.223 146.345Z" fill="white"/>
<path d="M110.223 146.345L99.5479 190.503L106.983 192.3L117.658 148.142L110.223 146.345Z" stroke="black" stroke-width="4.5" stroke-miterlimit="10"/>
<path d="M106.98 192.286L104.585 186.126L99.5437 190.489" stroke="black" stroke-width="4.5" stroke-miterlimit="10"/>
<path d="M113.935 147.228L104.585 186.127" stroke="black" stroke-width="4.5" stroke-miterlimit="10"/>
<path d="M195.954 75.595C195.814 75.6184 195.694 75.6418 195.541 75.673C194.134 75.9185 192.801 76.4785 191.641 77.311C190.369 78.2938 189.215 80.002 188.653 81.471C187.804 83.7018 186.871 85.8962 185.853 88.0542C184.317 91.3809 182.49 94.5651 180.393 97.5702C178.217 100.628 175.604 103.727 172.312 105.63C171.899 105.88 171.464 106.091 171.012 106.262C170.459 106.496 162.666 97.5312 161.808 96.5328C158.369 92.5314 154.812 88.569 150.779 85.1448C149.757 84.2712 148.699 83.4288 147.612 82.641C143.855 79.884 139.598 77.8838 135.078 76.752" stroke="black" stroke-width="4.5" stroke-miterlimit="10"/>
<path d="M209.973 75.2669C209.989 75.2708 210.005 75.2708 210.02 75.2669C213.624 75.6881 212.212 79.5725 209.677 79.4477C206.877 79.3073 204.084 79.4477 201.292 79.4945C200.522 79.4693 199.756 79.6102 199.046 79.9079C197.642 80.5787 197.509 82.0763 197.298 83.4335C197.018 85.2119 196.698 86.9903 196.321 88.7531C195.588 92.2475 194.683 95.6951 193.645 99.1115C192.975 101.327 192.234 103.532 191.454 105.713C189.176 112.14 186.306 118.957 181.477 123.913C178.81 126.659 175.315 128.687 171.376 128.39C165.831 127.977 160.495 125.192 155.792 122.025C155.772 122.012 155.754 121.996 155.737 121.979C153.982 120.797 152.299 119.51 150.699 118.125C150.699 118.125 144.217 112.353 142.236 108.126" stroke="black" stroke-width="4.5" stroke-miterlimit="10"/>
<path d="M220.22 71.7735V72.1375C220.22 74.6491 218.197 75.0807 216.45 75.1223L182.632 75.9023C181.15 75.9413 179.904 74.6439 179.873 73.0241V72.9565C179.873 71.3679 181.038 70.0471 182.502 70.0107C182.502 70.0107 201.419 69.4777 216.07 69.0747C216.349 69.9613 217.03 70.6477 217.875 71.1833C218.581 71.6079 219.397 71.8133 220.22 71.7735Z" stroke="black" stroke-width="4.5" stroke-miterlimit="10"/>
<path d="M238.186 35.9889C238.186 36.4029 238.088 36.8108 237.9 37.1797L222.786 68.1847C222.609 68.543 222.356 68.8587 222.045 69.1098C221.734 69.3612 221.372 69.5422 220.984 69.6407C220.36 69.7988 219.7 69.7304 219.12 69.4483C218.657 69.2206 218.267 68.8678 217.995 68.4299C217.722 67.9918 217.578 67.4864 217.578 66.9705C217.581 66.5579 217.675 66.1513 217.854 65.7797L232.976 34.7721C233.251 34.2183 233.704 33.7737 234.263 33.5101C234.823 33.2467 235.455 33.1799 236.056 33.3203C236.658 33.461 237.195 33.8008 237.58 34.2846C237.965 34.7685 238.174 35.3681 238.176 35.9863L238.186 35.9889Z" stroke="black" stroke-width="4.5" stroke-miterlimit="10"/>
<path d="M197.059 29.6119C201.646 29.6119 205.364 25.8939 205.364 21.3075C205.364 16.7211 201.646 13.0031 197.059 13.0031C192.473 13.0031 188.755 16.7211 188.755 21.3075C188.755 25.8939 192.473 29.6119 197.059 29.6119Z" fill="#01C8A4"/>
<path d="M194.42 24.1646C194.145 24.0616 193.887 23.9169 193.656 23.7356C193.248 23.4283 192.968 22.982 192.868 22.4814C192.769 21.9809 192.856 21.4612 193.115 21.0212C193.283 20.7355 193.516 20.4928 193.795 20.3124C194.073 20.1319 194.39 20.0185 194.719 19.9812C194.536 19.5519 194.498 19.0748 194.611 18.6219C194.724 18.1691 194.981 17.7653 195.343 17.4715C195.706 17.1777 196.154 17.01 196.62 16.9937C197.087 16.9775 197.545 17.1135 197.928 17.3812C198.731 17.9402 199.287 18.9256 199.628 19.8252C199.804 20.2976 199.933 20.7862 200.013 21.2838C200.052 21.5438 200.317 22.9738 200.109 23.1194C198.736 24.071 196.18 24.8354 194.42 24.1646Z" fill="white"/>
<g opacity="0.72">
<path opacity="0.72" d="M190.052 46.9349C192.577 46.9349 194.623 44.8887 194.623 42.3641C194.623 39.8398 192.577 37.7933 190.052 37.7933C187.528 37.7933 185.481 39.8398 185.481 42.3641C185.481 44.8887 187.528 46.9349 190.052 46.9349Z" fill="#01C8A4"/>
<path opacity="0.72" d="M190.957 44.3038C190.847 44.4234 190.719 44.525 190.577 44.6054C190.335 44.7468 190.05 44.7952 189.775 44.7411C189.499 44.687 189.253 44.5344 189.082 44.3116C188.971 44.1657 188.894 43.9959 188.86 43.8152C188.825 43.6348 188.833 43.4486 188.882 43.2716C188.626 43.2731 188.377 43.1917 188.171 43.0396C187.966 42.8873 187.815 42.6725 187.741 42.4273C187.668 42.1819 187.676 41.9196 187.765 41.6796C187.853 41.4393 188.018 41.2345 188.232 41.0954C188.72 40.8255 189.275 40.7028 189.831 40.7418C190.109 40.7496 190.385 40.7862 190.655 40.851C190.793 40.8822 191.578 41.0486 191.61 41.1838C191.81 42.086 191.667 43.5498 190.957 44.3038Z" fill="white"/>
</g>
<path d="M215.784 32.3887L211.299 34.7799C209.672 35.647 209.056 37.6693 209.923 39.2961L212.314 43.7817C213.181 45.4087 215.203 46.0247 216.83 45.1573L221.316 42.7664C222.943 41.899 223.559 39.877 222.692 38.2499L220.301 33.7644C219.433 32.1376 217.411 31.5216 215.784 32.3887Z" fill="#01C8A4"/>
<path d="M217.581 43.8828L220.829 42.1512C221.506 41.7877 222.012 41.1713 222.235 40.4362C222.46 39.701 222.384 38.9072 222.025 38.2278L219.945 34.3278C219.582 33.6502 218.965 33.144 218.23 32.9199C217.495 32.6958 216.7 32.772 216.021 33.1318L215.803 33.2488C214.992 34.3746 213.913 36.3012 215.543 36.907C217.883 37.7832 217.199 39.0962 216.323 40.7784C215.579 42.1902 215.389 43.8412 217.581 43.8828Z" fill="white"/>
<path d="M212.524 39.1612C213.202 39.1612 213.751 38.6115 213.751 37.934C213.751 37.2562 213.202 36.7068 212.524 36.7068C211.846 36.7068 211.297 37.2562 211.297 37.934C211.297 38.6115 211.846 39.1612 212.524 39.1612Z" fill="white"/>
<path d="M197.408 59.6437C197.862 59.8647 198.346 60.0189 198.845 60.1013C199.761 60.2417 200.698 60.1421 201.564 59.8122C202.43 59.4823 203.195 58.9334 203.785 58.2189C204.24 57.6521 204.581 56.9423 205.059 56.3703C205.386 55.953 205.824 55.6361 206.323 55.4551C206.494 55.4187 206.654 55.341 206.788 55.2289C207.116 54.8909 206.56 54.6049 206.448 54.3319C206.28 53.8915 206.28 53.4048 206.448 52.9643C206.875 51.8065 206.887 50.5364 206.482 49.3706C206.077 48.2048 205.28 47.2155 204.228 46.5714C203.175 45.9272 201.931 45.6682 200.709 45.8382C199.487 46.0085 198.361 46.5974 197.525 47.5043C196.698 48.3961 196.201 49.5349 195.686 50.6243C195.229 51.5941 194.743 52.5587 194.49 53.6013C193.905 56.0713 195.226 58.5803 197.408 59.6437Z" fill="#01C8A4"/>
<path d="M202.051 50.869C202.69 50.869 203.208 50.3511 203.208 49.712C203.208 49.0729 202.69 48.555 202.051 48.555C201.412 48.555 200.894 49.0729 200.894 49.712C200.894 50.3511 201.412 50.869 202.051 50.869Z" fill="white"/>
<path d="M200.535 54.062C201.174 54.062 201.692 53.5441 201.692 52.905C201.692 52.2662 201.174 51.748 200.535 51.748C199.896 51.748 199.378 52.2662 199.378 52.905C199.378 53.5441 199.896 54.062 200.535 54.062Z" fill="white"/>
<path d="M199.113 57.0573C199.752 57.0573 200.27 56.5391 200.27 55.9003C200.27 55.2612 199.752 54.7433 199.113 54.7433C198.474 54.7433 197.956 55.2612 197.956 55.9003C197.956 56.5391 198.474 57.0573 199.113 57.0573Z" fill="white"/>
<g opacity="0.54">
<path opacity="0.54" d="M171.34 64.3576C171.692 64.311 172.039 64.239 172.38 64.1418L176.296 63.0394C177.494 62.7014 178.755 62.327 179.605 61.4144C181.181 59.7218 180.671 57.0334 180.06 54.8026C179.563 52.9774 179.065 51.1522 178.565 49.327C178.222 48.0686 177.869 46.7894 177.185 45.687C176.501 44.5846 175.419 43.6382 174.13 43.4354C173.181 43.2872 172.219 43.542 171.291 43.7942L167.534 44.8342C166.301 45.1696 165.001 45.5466 164.138 46.4904C162.604 48.1674 163.098 50.7986 163.686 52.9904L165.186 58.5934C166.106 61.9604 167.83 64.7996 171.34 64.3576Z" fill="#01C8A4"/>
<path opacity="0.54" d="M171.08 56.7164C171.312 56.9429 171.6 57.1041 171.914 57.1842C172.228 57.2643 172.557 57.2601 172.869 57.1725C173.181 57.0846 173.465 56.9164 173.691 56.6842C173.917 56.4523 174.079 56.1647 174.159 55.8506L174.595 54.1398L175.03 52.4264C175.109 52.1124 175.105 51.7827 175.017 51.4709C174.929 51.1589 174.76 50.8758 174.528 50.6499C174.296 50.4237 174.008 50.2627 173.694 50.1829C173.38 50.1033 173.051 50.1075 172.739 50.1956L171.041 50.674L169.341 51.1524C169.029 51.2411 168.747 51.4104 168.521 51.6428C168.296 51.8752 168.136 52.1631 168.057 52.4771C167.978 52.791 167.983 53.1204 168.071 53.4319C168.16 53.7433 168.329 54.026 168.561 54.2516L169.827 55.484L171.08 56.7164Z" fill="white"/>
</g>
</svg>
